# xmcd
#
# Track frame offsets:
# 150
# 23472
# 38741
# 57490
# 74235
# 92068
# 111072
# 126602
# 141062
# 160000
# 180618
# 196964
# 218802
# 237487
#
# Disc length: 3455 seconds
#
#
# Revision: 2
# Processed by: cddbd v1.5.2PL0 Copyright (c) Steve Scherf et al.
# Submitted via: FreeRIP 2.951 
#
DISCID=cc0d7d0e
DTITLE=Jamie Cullum - Twenty Something
DYEAR=2003
DGENRE=Blues
TTITLE0=Jamie Cullum - What A Difference A Day Make
TTITLE1=Jamie Cullum - These Are The Days
TTITLE2=Jamie Cullum - Singin In The Rain
TTITLE3=Jamie Cullum - Twentysomething
TTITLE4=Jamie Cullum - But For Now
TTITLE5=Jamie Cullum - Old Devil Moon
TTITLE6=Jamie Cullum - I Could Have Danced All Night
TTITLE7=Jamie Cullum - Blame It On My Youth
TTITLE8=Jamie Cullum - I Get Kick Out Of You
TTITLE9=Jamie Cullum - All At Sea
TTITLE10=Jamie Cullum - Wind Cries Mary
TTITLE11=Jamie Cullum - Lover, You Should Have Come Over
TTITLE12=Jamie Cullum - It's About Time
TTITLE13=Jamie Cullum - Next Year Baby
EXTD=
EXTT0=
EXTT1=
EXTT2=
EXTT3=
EXTT4=
EXTT5=
EXTT6=
EXTT7=
EXTT8=
EXTT9=
EXTT10=
EXTT11=
EXTT12=
EXTT13=
PLAYORDER=
